<?xml version="1.0" encoding="utf-8"?>
<!-- Generator: Adobe Illustrator 26.0.1, SVG Export Plug-In . SVG Version: 6.00 Build 0)  -->
<svg version="1.0" id="Capa_1" xmlns="http://www.w3.org/2000/svg" xmlns:xlink="http://www.w3.org/1999/xlink" x="0px" y="0px"
	 viewBox="0 0 200 60" style="enable-background:new 0 0 200 60;" xml:space="preserve">
<style type="text/css">
	.st0{fill:#797879;}
	.st1{fill:#FBB81D;}
</style>
<g>
	<g>
		<g>
			<path class="st0" d="M100,47.5c-0.3,0-0.6-0.1-0.8-0.3c-0.2-0.2-0.3-0.4-0.3-0.8c0-0.3,0.1-0.6,0.3-0.7c0.2-0.2,0.5-0.3,0.8-0.3
				h8c0.3,0,0.6,0.1,0.8,0.3s0.3,0.4,0.3,0.8c0,0.3-0.1,0.6-0.3,0.7c-0.2,0.2-0.5,0.3-0.8,0.3H100z M104,58c-0.3,0-0.6-0.1-0.8-0.3
				c-0.2-0.2-0.3-0.5-0.3-0.8V46.5h2.3v10.4c0,0.3-0.1,0.6-0.3,0.8C104.6,57.9,104.3,58,104,58z"/>
			<path class="st0" d="M119.4,45.4c0.3,0,0.6,0.1,0.8,0.3s0.3,0.5,0.3,0.8V53c0,1-0.2,1.9-0.6,2.6c-0.4,0.8-1,1.4-1.7,1.8
				c-0.7,0.4-1.6,0.6-2.6,0.6s-1.8-0.2-2.6-0.6c-0.7-0.4-1.3-1-1.8-1.8c-0.4-0.8-0.6-1.6-0.6-2.6v-6.5c0-0.3,0.1-0.6,0.3-0.8
				s0.5-0.3,0.8-0.3s0.5,0.1,0.7,0.3s0.3,0.5,0.3,0.8V53c0,0.6,0.1,1.1,0.4,1.5c0.3,0.4,0.6,0.8,1,1s0.9,0.4,1.4,0.4s1-0.1,1.4-0.4
				c0.4-0.2,0.8-0.6,1.1-1s0.4-1,0.4-1.5v-6.5c0-0.3,0.1-0.6,0.3-0.8C118.9,45.5,119.1,45.4,119.4,45.4z"/>
			<path class="st0" d="M124,58c-0.3,0-0.6-0.1-0.9-0.3c-0.3-0.2-0.4-0.5-0.4-0.8V46.5c0-0.3,0.1-0.6,0.3-0.8s0.5-0.3,0.8-0.3h5.2
				c0.6,0,1.2,0.2,1.7,0.5s1,0.8,1.3,1.4c0.3,0.6,0.5,1.2,0.5,2c0,0.5-0.1,0.9-0.3,1.3c-0.2,0.4-0.4,0.8-0.8,1.2
				c-0.3,0.3-0.7,0.6-1.1,0.8v-0.4c0.3,0.2,0.6,0.4,0.8,0.6c0.2,0.2,0.4,0.5,0.5,0.8s0.2,0.6,0.2,0.9c0,0.3,0.1,0.6,0.1,0.8
				s0.1,0.4,0.1,0.6c0.1,0.2,0.2,0.3,0.3,0.4c0.3,0.2,0.4,0.4,0.5,0.7s0,0.6-0.2,0.8c-0.1,0.2-0.3,0.3-0.5,0.3s-0.4,0-0.6,0
				s-0.4-0.1-0.5-0.2c-0.2-0.1-0.4-0.3-0.6-0.5c-0.2-0.2-0.4-0.5-0.5-0.9s-0.2-0.9-0.2-1.5c0-0.2,0-0.4-0.1-0.6
				c-0.1-0.2-0.2-0.3-0.3-0.4c-0.1-0.1-0.3-0.2-0.5-0.3s-0.4-0.1-0.7-0.1h-3.6l0.3-0.4v3.9c0,0.3-0.1,0.6-0.3,0.8
				C124.5,57.9,124.3,58,124,58z M124.7,51.6h4.2c0.2,0,0.4-0.1,0.6-0.3c0.2-0.2,0.4-0.5,0.5-0.8s0.2-0.7,0.2-1.1
				c0-0.5-0.1-1-0.4-1.3c-0.3-0.4-0.6-0.5-0.9-0.5h-4.1L125,47v5L124.7,51.6z"/>
			<path class="st0" d="M136.8,56.9c0,0.3-0.1,0.6-0.3,0.8S136,58,135.7,58s-0.6-0.1-0.8-0.3s-0.3-0.5-0.3-0.8V46.5
				c0-0.3,0.1-0.6,0.3-0.8s0.5-0.3,0.8-0.3s0.5,0.1,0.8,0.3c0.2,0.2,0.3,0.5,0.3,0.8V56.9z"/>
			<path class="st0" d="M143.1,58.1c-0.8,0-1.6-0.1-2.3-0.3s-1.3-0.6-1.9-1.1c-0.2-0.1-0.3-0.3-0.4-0.4c-0.1-0.2-0.1-0.3-0.1-0.5
				c0-0.3,0.1-0.5,0.3-0.7s0.4-0.3,0.7-0.3c0.2,0,0.4,0.1,0.6,0.2c0.5,0.4,0.9,0.7,1.4,0.8c0.4,0.2,1,0.3,1.7,0.3
				c0.4,0,0.8-0.1,1.2-0.2c0.4-0.1,0.7-0.3,0.9-0.6c0.2-0.2,0.3-0.5,0.3-0.8c0-0.4-0.1-0.7-0.3-0.9c-0.2-0.3-0.5-0.5-1-0.6
				c-0.4-0.2-1-0.3-1.7-0.4c-0.6-0.1-1.2-0.2-1.7-0.4s-0.9-0.4-1.2-0.8c-0.3-0.3-0.6-0.7-0.7-1.1c-0.2-0.4-0.3-0.9-0.3-1.4
				c0-0.8,0.2-1.4,0.6-2c0.4-0.5,0.9-1,1.6-1.3c0.7-0.3,1.4-0.4,2.3-0.4c0.8,0,1.5,0.1,2.2,0.3s1.2,0.5,1.6,0.9
				c0.3,0.3,0.5,0.6,0.5,0.9c0,0.3-0.1,0.5-0.3,0.7s-0.4,0.3-0.7,0.3c-0.2,0-0.3-0.1-0.5-0.2c-0.2-0.2-0.4-0.3-0.8-0.5
				c-0.3-0.1-0.7-0.3-1-0.4c-0.4-0.1-0.7-0.2-1-0.2c-0.5,0-0.9,0.1-1.3,0.2c-0.4,0.1-0.6,0.3-0.8,0.5s-0.3,0.5-0.3,0.8
				c0,0.4,0.1,0.7,0.3,0.9s0.5,0.4,0.9,0.6c0.4,0.1,0.9,0.3,1.4,0.4c0.7,0.1,1.3,0.3,1.9,0.5c0.5,0.2,1,0.4,1.4,0.7s0.6,0.6,0.8,1.1
				c0.2,0.4,0.3,0.9,0.3,1.5c0,0.8-0.2,1.4-0.6,2c-0.4,0.6-1,1-1.7,1.3C144.6,58,143.9,58.1,143.1,58.1z"/>
			<path class="st0" d="M150.4,45.4c0.2,0,0.3,0,0.5,0.1s0.3,0.2,0.4,0.3l4.4,6.7h-0.9l4.5-6.7c0.2-0.3,0.5-0.5,0.9-0.5
				c0.3,0,0.5,0.1,0.8,0.3c0.2,0.2,0.3,0.5,0.3,0.8v10.4c0,0.3-0.1,0.6-0.3,0.8s-0.5,0.3-0.8,0.3s-0.6-0.1-0.8-0.3s-0.3-0.5-0.3-0.8
				v-8.4l0.7,0.2l-3.7,5.6c-0.1,0.1-0.2,0.2-0.4,0.3s-0.3,0.1-0.5,0.1s-0.3,0-0.5-0.1s-0.3-0.2-0.4-0.3l-3.4-5.4l0.5-0.9V57
				c0,0.3-0.1,0.6-0.3,0.8s-0.4,0.3-0.8,0.3c-0.3,0-0.5-0.1-0.7-0.3s-0.3-0.5-0.3-0.8V46.5c0-0.3,0.1-0.6,0.3-0.8
				S150.1,45.4,150.4,45.4z"/>
			<path class="st0" d="M175,51.7c0,0.9-0.1,1.7-0.4,2.5c-0.3,0.8-0.7,1.5-1.3,2.1s-1.2,1.1-1.9,1.4c-0.7,0.3-1.6,0.5-2.4,0.5
				c-0.9,0-1.7-0.2-2.4-0.5s-1.4-0.8-1.9-1.4c-0.5-0.6-1-1.3-1.3-2.1s-0.4-1.6-0.4-2.5s0.1-1.7,0.4-2.5c0.3-0.8,0.7-1.5,1.3-2.1
				c0.5-0.6,1.2-1.1,1.9-1.4c0.7-0.3,1.6-0.5,2.4-0.5c0.9,0,1.7,0.2,2.4,0.5s1.4,0.8,1.9,1.4c0.5,0.6,1,1.3,1.3,2.1
				S175,50.8,175,51.7z M172.7,51.7c0-0.8-0.2-1.5-0.5-2.2s-0.8-1.2-1.3-1.5c-0.6-0.4-1.2-0.6-2-0.6c-0.7,0-1.4,0.2-2,0.6
				c-0.6,0.4-1,0.9-1.3,1.5s-0.5,1.4-0.5,2.2s0.2,1.5,0.5,2.2s0.8,1.2,1.3,1.5c0.6,0.4,1.2,0.6,2,0.6c0.7,0,1.4-0.2,2-0.6
				c0.6-0.4,1-0.9,1.3-1.5C172.6,53.2,172.7,52.5,172.7,51.7z"/>
		</g>
	</g>
	<g>
		<path class="st1" d="M160.2,19.6c-0.3-0.6-0.8-1.1-1.4-1.5l0,0c-0.1-0.1-0.2-0.1-0.2-0.1l0,0c-0.1,0-0.1-0.1-0.2-0.1
			c0,0,0,0-0.1,0s-0.1-0.1-0.2-0.1H158c-0.1,0-0.1-0.1-0.2-0.1h-0.1c-0.1,0-0.1,0-0.2-0.1h-0.1c-0.1,0-0.1,0-0.2,0h-0.1
			c-0.1,0-0.1,0-0.2,0h-0.1c-0.1,0-0.1,0-0.2,0h-0.1c-0.1,0-0.1,0-0.2,0l0,0l0,0h-1l0,0h-4l0,0h-2.1l0,0h-2.1l0,0H147
			c-2.5,0-4.5,2-4.5,4.5s2,4.5,4.5,4.5h0.2l0,0h2.1l0,0h2.5V28v0.6c-0.4,0.3-0.9,0.5-1.3,0.7c-1.1,0.5-2.3,0.7-3.5,0.7
			s-2.4-0.2-3.5-0.7s-2-1.1-2.8-1.9s-1.4-1.8-1.9-2.9c-0.2-0.4-0.3-0.8-0.4-1.2c-0.2-0.7-0.3-1.5-0.3-2.3c0-0.7,0.1-1.5,0.3-2.2
			c0.1-0.5,0.3-0.9,0.4-1.3c0.5-1.1,1.1-2.1,1.9-2.9c0.8-0.8,1.8-1.5,2.8-1.9c1.1-0.5,2.2-0.7,3.5-0.7c1.2,0,2.4,0.2,3.5,0.7
			c0.9,0.4,1.7,0.9,2.4,1.5c0.1,0.1,0.1,0.1,0.2,0.2c0.8,0.7,1.8,1.1,2.9,1.1c2.5,0,4.5-2,4.5-4.5c0-1.3-0.5-2.4-1.4-3.2
			c-0.1-0.1-0.2-0.2-0.3-0.2c-1.4-1.2-3-2.3-4.8-3c-2.2-0.9-4.5-1.4-7-1.4c-1.6,0-3.3,0.2-4.8,0.7c-1.5,0.4-2.9,1-4.3,1.8
			c-1.3,0.8-2.5,1.7-3.6,2.8s-2,2.3-2.8,3.6s-1.4,2.8-1.8,4.3c-0.2,0.8-0.4,1.7-0.5,2.6c-0.1,0.7-0.1,1.4-0.1,2.2
			c0,0.8,0,1.6,0.1,2.3c0.2,1.6,0.6,3.2,1.3,4.7c0.9,2.2,2.2,4.1,3.8,5.7c1.6,1.6,3.5,2.9,5.7,3.9c2.2,0.9,4.5,1.4,7,1.4
			c1.6,0,3.3-0.2,4.8-0.6c1.5-0.4,3-1,4.3-1.8c1.2-0.7,2.2-1.5,3.2-2.4c0.1-0.1,0.2-0.2,0.3-0.3c0.4-0.4,0.7-0.8,0.9-1.3v-0.1
			c0.2-0.5,0.3-1.1,0.3-1.7v-2.7v-5.9l0,0c0-0.6-0.1-1.2-0.3-1.7C160.4,20,160.3,19.8,160.2,19.6z"/>
	</g>
	<path class="st1" d="M197.5,13.7L197.5,13.7c-0.9-2.2-2.2-4.1-3.8-5.7s-3.5-2.9-5.7-3.8s-4.5-1.4-7-1.4c-1.6,0-3.3,0.2-4.8,0.7
		c-1.5,0.4-2.9,1-4.3,1.8c-1.3,0.8-2.5,1.7-3.6,2.8s-2,2.3-2.8,3.6s-1.4,2.8-1.8,4.3c-0.4,1.5-0.6,3.1-0.6,4.8c0,2.5,0.5,4.8,1.4,7
		s2.2,4.1,3.8,5.7c1.6,1.6,3.5,2.9,5.7,3.9c2.2,0.9,4.5,1.4,7,1.4c1.6,0,3.3-0.2,4.8-0.6c1.5-0.4,3-1,4.3-1.8s2.5-1.7,3.6-2.8
		s2-2.3,2.8-3.6c0.8-1.3,1.4-2.8,1.8-4.3c0.4-1.5,0.7-3.1,0.7-4.8C198.9,18.2,198.5,15.9,197.5,13.7z M190,20.7
		c0,1.3-0.2,2.4-0.7,3.5s-1.1,2.1-1.9,2.9c-0.8,0.8-1.8,1.4-2.9,1.9c-1.1,0.5-2.3,0.7-3.5,0.7s-2.4-0.2-3.5-0.7s-2-1.1-2.8-1.9
		s-1.4-1.8-1.9-2.9s-0.7-2.3-0.7-3.5s0.2-2.4,0.7-3.5s1.1-2.1,1.9-2.9c0.8-0.8,1.8-1.5,2.8-1.9c1.1-0.5,2.2-0.7,3.5-0.7
		c1.2,0,2.4,0.2,3.5,0.7s2.1,1.1,2.9,1.9c0.8,0.8,1.5,1.8,1.9,2.9C189.7,18.3,190,19.5,190,20.7z"/>
	<path class="st1" d="M125.5,2.8h-4.4h-0.3h-13.3c-2.5,0-4.5,2-4.5,4.5s2,4.5,4.5,4.5h4.5l0,0v0.4v22.1c0,0.6,0.1,1.2,0.4,1.7
		c0.2,0.6,0.6,1,1,1.4s0.9,0.7,1.4,0.9s1.1,0.4,1.7,0.4s1.2-0.1,1.8-0.4c0.5-0.2,1-0.5,1.4-0.9s0.8-0.9,1-1.5s0.4-1.1,0.4-1.7V20.7
		v-9h4.5c1.8,0,3.4-1.1,4.1-2.6c0.3-0.6,0.4-1.2,0.4-1.9C130,4.8,128,2.8,125.5,2.8z"/>
	<path class="st1" d="M100.1,21.6c-1-1.5-2.4-2.7-4.3-3.6c-1.7-0.8-3.8-1.4-6.6-1.9c-2.5-0.5-3.7-1-4.3-1.3
		c-0.5-0.3-0.6-0.6-0.6-1.2c0-0.3,0.1-0.7,0.7-1.1c0.7-0.5,1.8-0.7,3.2-0.7c0.9,0,1.9,0.2,3,0.6c1.2,0.4,2.1,0.9,2.7,1.4H94
		c0.7,0.5,1.5,0.8,2.4,0.8c1.2,0,2.3-0.5,3.2-1.4c0.9-0.9,1.3-2,1.3-3.2c0-1-0.4-2.6-2-3.9C97.6,5,96,4.2,94.2,3.5
		c-1.8-0.6-3.8-0.9-5.9-0.9c-2.3,0-4.5,0.4-6.4,1.2c-2,0.9-3.6,2.2-4.8,3.8c-1.2,1.7-1.8,3.7-1.8,6c0,4.3,2,9.6,11.4,11
		c2.8,0.4,4.2,1,4.9,1.4c0.6,0.4,0.9,0.8,0.9,1.5c0,0.1,0,0.5-0.9,1.1c-0.9,0.5-1.9,0.8-3.2,0.8c-1.3,0-2.4-0.2-3.3-0.5
		c-0.9-0.4-1.9-1-2.9-1.8l0,0c-0.8-0.6-1.7-1-2.7-1c-1.2,0-2.4,0.5-3.2,1.4c-0.9,0.9-1.3,2-1.3,3.2c0,1,0.3,2.5,1.9,3.8
		c1.6,1.4,3.5,2.5,5.4,3.1c1.8,0.6,4,0.9,6.3,0.9s4.4-0.4,6.4-1.3c2.1-0.9,3.7-2.2,5-3.9s2-3.8,2-6.1
		C101.6,25.1,101.1,23.1,100.1,21.6z"/>
	<g>
		<g>
			<path class="st1" d="M2.6,5.6h2.6l1.6,8.1l4.8-8.1h2.9L7.4,17.3H5.1L2.6,5.6z"/>
			<path class="st1" d="M13.4,14.6l1.2-5.7H17l-1.1,5.5c0,0.1-0.1,0.2-0.1,0.4c0,0.3,0.2,0.5,0.5,0.5c0.1,0,0.3,0,0.3,0l-0.4,2.1
				c-0.3,0.1-0.5,0.1-1.1,0.1c-1.2,0-1.9-0.8-1.9-1.8C13.2,15.3,13.3,15,13.4,14.6z M14.7,6.9c0-0.8,0.7-1.6,1.6-1.6
				c0.8,0,1.3,0.6,1.3,1.3c0,0.8-0.7,1.6-1.6,1.6C15.3,8.1,14.7,7.6,14.7,6.9z"/>
			<path class="st1" d="M17.4,8.8h2.4l1.1,5.5l3.3-5.5h2.7l-5.4,8.5h-2.2L17.4,8.8z"/>
			<path class="st1" d="M30.5,8.7c1.5,0,2.5,0.6,2.8,1.2l0.2-1H36l-1.1,5.5c0,0.2-0.1,0.3-0.1,0.4c0,0.3,0.2,0.5,0.5,0.5
				c0.1,0,0.3,0,0.4,0l-0.4,2.1c-0.2,0.1-0.5,0.1-1,0.1c-0.4,0-0.8-0.1-1.1-0.3c-0.3-0.2-0.5-0.4-0.6-0.7l0,0c-0.7,0.7-1.5,1-2.9,1
				c-2.2,0-4-1.5-4-3.9C25.6,10.9,27.9,8.7,30.5,8.7z M30.2,15.2c1.4,0,2.5-1,2.5-2.4c0-1.1-0.8-1.8-2.1-1.8c-1.4,0-2.5,1.2-2.5,2.4
				C28.1,14.4,28.9,15.2,30.2,15.2z"/>
			<path class="st1" d="M37.7,8.8h2.5L40,10c0.6-0.9,1.3-1.3,2.2-1.3c1.1,0,2,0.5,2.3,1.4c0.7-0.9,1.7-1.4,2.9-1.4
				c1.6,0,2.5,1.1,2.5,2.8c0,0.3,0,0.6-0.1,0.8l-0.4,2.1c0,0.2-0.1,0.3-0.1,0.4c0,0.3,0.2,0.5,0.4,0.5s0.3,0,0.3,0l-0.4,2
				c0,0-0.3,0.1-1,0.1c-1.2,0-1.9-0.8-1.9-1.8c0-0.3,0.1-0.6,0.2-1l0.4-2.1c0.1-0.2,0.1-0.3,0.1-0.4c0-0.7-0.4-1.1-1-1.1
				c-0.8,0-1.3,0.6-1.5,1.5l-1,4.9h-2.5l1-4.9c0-0.1,0-0.3,0-0.4c0-0.7-0.4-1.1-1.1-1.1c-0.8,0-1.4,0.6-1.6,1.6l-1,4.9H36L37.7,8.8z
				"/>
			<path class="st1" d="M56,8.6c2.6,0,4.4,1.7,4.4,4.1c0,2.5-2.2,4.9-5.2,4.9c-2.6,0-4.4-1.7-4.4-4C50.7,11,53.1,8.6,56,8.6z
				 M55.3,15.3c1.4,0,2.5-1.2,2.5-2.4s-0.8-2-2.1-2c-1.4,0-2.5,1.2-2.5,2.4S54.1,15.3,55.3,15.3z"/>
			<path class="st1" d="M61.6,14.3c0.5,0.8,1.3,1.1,2.3,1.1c0.8,0,1.2-0.4,1.2-0.7c0-0.5-1.2-0.6-2.3-1.1c-1-0.5-1.6-1.1-1.6-2.2
				c0-1.5,1.5-2.8,3.4-2.8c1.3,0,2.4,0.5,3.1,1.3l-1.5,1.6c-0.3-0.3-0.8-0.8-1.7-0.8c-0.6,0-1,0.3-1,0.6c0,0.5,1,0.6,2.2,1.1
				s1.6,1.3,1.6,2.3c0,1.6-1.5,2.9-3.8,2.9c-1.8,0-3.1-0.7-3.8-1.8L61.6,14.3z"/>
			<path class="st1" d="M36.5,20.5H39l-0.8,4.1c0.4-0.6,1.3-1,2.4-1c2,0,3.8,1.6,3.8,3.9c0,2.5-2.2,4.9-4.8,4.9
				c-1.4,0-2.4-0.5-2.7-1.2l-0.2,1h-2.5L36.5,20.5z M39.3,30.2c1.4,0,2.5-1.1,2.5-2.3c0-1.1-0.8-1.9-2.1-1.9c-1.4,0-2.4,1.2-2.4,2.4
				C37.3,29.4,38.1,30.2,39.3,30.2z"/>
			<path class="st1" d="M45,29.5l1.2-5.7h2.5l-1.1,5.5c0,0.1-0.1,0.2-0.1,0.4c0,0.3,0.2,0.5,0.5,0.5c0.1,0,0.3,0,0.3,0l-0.4,2.1
				c-0.3,0.1-0.5,0.1-1.1,0.1c-1.2,0-1.9-0.8-1.9-1.8C44.8,30.3,44.9,29.9,45,29.5z M46.4,21.8c0-0.8,0.7-1.6,1.6-1.6
				c0.8,0,1.3,0.6,1.3,1.3c0,0.8-0.7,1.6-1.6,1.6C46.9,23.1,46.4,22.5,46.4,21.8z"/>
			<path class="st1" d="M53.9,23.6c2.5,0,4.1,1.6,4.1,3.8c0,0.4-0.1,0.9-0.2,1.3h-6.3v0.1c0,0.9,0.8,1.6,2.2,1.6
				c0.8,0,1.5-0.3,2.1-0.9l1.3,1.5c-1.1,1.1-2.5,1.5-3.8,1.5c-2.6,0-4.3-1.6-4.3-4C48.9,26,51,23.6,53.9,23.6z M55.5,27.1L55.5,27.1
				c0-0.8-0.7-1.4-1.7-1.4c-1.1,0-2,0.6-2.3,1.4H55.5z"/>
			<path class="st1" d="M59.7,23.8h2.5L62,24.9c0.6-0.9,1.4-1.3,2.4-1.3c1.7,0,2.9,1,2.9,2.9c0,0.3,0,0.6-0.1,0.9l-0.4,2
				c0,0.2-0.1,0.3-0.1,0.4c0,0.3,0.1,0.5,0.4,0.5c0.2,0,0.3,0,0.3,0l-0.4,2c0,0-0.3,0.1-1,0.1c-1.1,0-1.9-0.8-1.9-1.9
				c0-0.3,0.1-0.6,0.2-1l0.4-1.9c0.1-0.2,0.1-0.4,0.1-0.5c0-0.8-0.5-1.2-1.3-1.2c-0.9,0-1.7,0.7-1.9,1.7l-0.9,4.7h-2.5L59.7,23.8z"
				/>
		</g>
	</g>
</g>
</svg>
